Patient4_TMGait_0pt5_01_right_24_EMG.mot
version=1
nRows=33
nColumns=33
inDegrees=no
endheader
time	1LAddLong	2LGlutMax	3LGlutMed	4LIliopsoas	5LSemiMemb	6LBicFemLong	7LRecFem	8LVastMed	9LVastLat	10LGasMed	11LTibAnt	12lTibPost	13LPeroneusLong	14LSol	15LExtDigLong	16LFlexDigLong	17RAddLong	18RGlutMax	19RGlutMed	20RIliopsoas	21RSemiMemb	22RBicFemLong	23RRecFem	24RVastMed	25RVastLat	26RGasMed	27RTibAnt	28RTibPost	29RPeroneusLong	30RSol	31RExtDigLong	32RFlexDigLong
32.38	-0.029449	-0.059357	0.068512	0.004578	-0.001678	0.15671	0.087738	0.009766	-0.076141	-0.15717	-0.005951	0.007477	-0.055237	0.023956	-0.023346	0.006866	0.072174	0.29221	0.085907	0.048523	-0.022125	-0.030975	-0.17334	-0.028839	0.032043	-0.015259	0.35568	-0.021515	-0.048981	0.11581	0	-0.020142
32.381	-0.037842	-0.031433	0.006104	0.014801	0.029602	0.23025	0.12238	0.018005	-0.083313	-0.088501	0.003052	0.006104	-0.065002	0.023193	0.010681	0.004425	0.062408	0.34149	0.082245	0.15305	0.021515	-0.036316	-0.16602	-0.008087	0.02182	-0.014191	0.25909	0.001831	-0.054626	0.50217	-0.001373	-0.014343
32.382	-0.033722	-0.026398	0.043793	0.00824	-0.004578	0.31372	0.12741	0.027161	-0.11124	-0.044861	0.011139	-0.002289	-0.075378	-0.002594	0.019531	0.031586	0.05188	0.42068	0.076294	0.10239	-0.11414	0.060883	-0.16266	-0.006714	0.026245	-0.011292	-0.077362	0.018768	0.13534	0.29327	-0.000916	-0.016937
32.383	-0.021515	-0.004578	-0.00946	0.014343	-0.063477	0.24384	0.18097	0.011902	-0.1059	-0.001984	0.006104	0.011292	-0.015259	0.006256	0.018463	0.022278	0.039978	0.47195	0.11383	-0.044861	-0.15823	0.078583	-0.19974	-0.025024	0.033417	-0.014648	0.31326	0.0177	0.28717	-0.051727	0.000153	-0.012817
32.384	-0.003967	-0.046387	0.023651	0.00946	-0.076141	0.070496	0.20706	0.010376	-0.10681	0.007019	0.006561	0.005188	0.069122	-0.000763	0.029297	0.025635	0.043335	0.54916	0.11215	-0.17029	-0.1033	0.012512	-0.20355	-0.042725	0.019836	-0.014191	0.18646	-0.001831	0.25681	-0.099487	0	-0.009003
32.385	0.012054	0.02121	0.083313	0.016479	-0.041809	-0.00351	0.2034	0.013428	-0.1033	0.031433	0.012512	0.007172	0.02243	0.00061	0.012665	0.041046	0.028229	0.59372	0.099335	-0.14038	-0.065765	-0.000153	-0.21576	-0.019379	0.019836	-0.012665	-0.60501	-0.007477	0.16083	-0.022125	-0.002136	-0.014496
32.386	0.029602	0.01709	0.079956	0.016327	0.019684	-0.22797	0.16632	0.023804	-0.10544	0.042572	0.016785	0.011749	-0.02121	0.011597	0.027771	0.045776	0.007935	0.61859	0.093842	-0.072479	-0.083923	0.022583	-0.18448	-0.016937	0.023041	-0.00824	-0.7193	-0.009918	0.112	-0.062866	-0.002289	-0.015564
32.387	0.026245	-0.00061	0.019836	0.01358	0.061493	-0.37399	0.20142	0.018768	-0.081177	0.035248	0.00412	0.008545	-0.045013	-0.006866	0.042419	0.059967	0.000916	0.64896	0.080261	0.017548	-0.18173	0.096893	-0.20859	0.000458	0.026093	-0.005493	-0.57297	-0.00824	0.14069	-0.12421	0.004578	-0.022278
32.388	0.015259	0.023956	-0.00351	0.010376	0.070343	-0.51788	0.23209	0.037689	-0.008545	0.028992	-0.00351	0.012512	-0.031433	0.003052	0.010071	0.05127	-0.000153	0.75836	0.072479	0.10529	-0.14069	0.12207	-0.2063	0.012207	0.028534	0.005341	-0.41657	-0.009766	0.13519	-0.12741	0.00061	-0.017853
32.389	-0.003662	0.085602	0.031891	0.004272	-0.009155	-0.35095	0.16998	0.044708	0.064697	0.017395	0.007629	0.011139	0.018158	0.007172	-0.010681	0.041046	0.001831	0.7544	0.019073	0.005646	-0.004578	0.067902	-0.25818	0.02655	0.036316	0.006104	-0.54398	-0.011749	0.10529	-0.10956	0.005341	-0.019226
32.39	-0.012512	0.10819	0.16037	-0.014648	-0.075378	-0.18768	0.10056	0.02243	0.12451	0.023956	0.021057	0.016785	0.055389	0.036621	-0.027313	0.048828	0.009308	0.69199	0.057983	-0.069122	0.038605	0.041656	-0.25559	-0.002136	0.020752	0.006104	-0.58518	-0.009155	0.14923	-0.048828	0.004578	-0.026093
32.391	-0.013885	0.076447	0.15152	0.018005	-0.11261	-0.27222	-0.008545	0.011139	0.25192	0.046234	-0.025482	0.009766	0.065002	0.039825	-0.000153	0.040436	0.000916	0.65613	0.051422	-0.037231	-0.10681	0.026245	-0.24689	0.000153	0.01709	0.007629	-0.26764	-0.008698	0.10544	-0.099792	0.001373	-0.027313
32.392	-0.015564	0.011597	0.05661	0.018158	-0.10788	-0.21439	-0.038452	-0.00351	0.34454	0.053406	-0.043335	0.00824	0.073242	0.064392	0.029907	0.047913	-0.021057	0.60745	0.066833	0.007019	-0.23666	0.011139	-0.28046	0.044708	0.041046	0.010376	-0.019836	-0.005646	0.15762	-0.16861	0.001984	-0.027466
32.393	-0.020294	0.023193	0.081635	0.016785	-0.063019	-0.067291	-0.012054	0.000305	0.20996	0.049591	-0.067444	0.008392	0.073242	0.077667	-0.007935	0.054626	-0.019226	0.53162	0.11917	0.095825	-0.26566	0.054016	-0.2832	0.032043	0.015869	0.009003	0.35599	-0.00946	0.22675	-0.1062	0.005646	-0.031891
32.394	-0.013733	0.089264	0.08667	0.005951	-0.057373	-0.12863	-0.071716	0.009918	0.094604	0.05249	-0.052032	0.014496	-0.018005	0.070801	-0.096436	0.030823	-0.027161	0.47958	0.10498	0.057831	-0.23621	0.081177	-0.27145	0.000763	0.021515	0.005035	0.75028	-0.007477	0.18066	-0.042267	-0.000305	-0.029602
32.395	-0.048523	0.068512	0.01358	0.014191	-0.009308	-0.16556	-0.13092	0.020752	0.066833	0.067139	0.057526	0.019226	-0.1384	0.072327	-0.1831	0.00946	0.006714	0.38742	0.030518	-0.050964	-0.065002	0.12772	-0.25146	-0.027771	0.014038	0.00061	0.88959	-0.007477	-0.061646	-0.006256	0.000458	-0.031433
32.396	0.002899	0.0354	0.042877	0.009918	-0.056763	-0.072021	0.0737	0.017548	0.059509	0.039673	0.15228	0.018463	-0.1535	0.094604	-0.1384	0.011749	0.022736	0.34836	0.023499	-0.14511	0.02594	0.11185	-0.28229	-0.096436	0.011749	-0.000153	0.82947	-0.007629	-0.11475	-0.017395	0.00061	-0.029297
32.397	0.012512	0.032349	0.012207	-0.005188	-0.089111	-0.088806	0.17975	0.005646	0.011902	0.029449	0.13931	0.024261	-0.1268	0.10254	-0.13336	-0.004578	0.038605	0.25162	0.06897	-0.14236	0.027313	0.040131	-0.26459	-0.13855	0.00412	0.000763	0.17059	-0.010376	-0.089874	0.035095	0.001068	-0.027313
32.398	0.010376	-0.02655	-0.011902	0.027618	-0.024109	-0.081177	0.15198	-0.004578	-0.027924	0.024719	0.11353	0.019226	0.006104	0.10529	-0.030823	-0.006714	0.047302	0.19363	0.10681	-0.044403	-0.18188	0.061035	-0.26398	-0.13382	-0.008698	0.000458	-0.1712	-0.008698	-0.067444	0.078888	0	-0.0177
32.399	-0.0177	-0.039063	0.048218	0.028229	0.017853	0.11826	0.17624	-0.00885	-0.17777	0.023041	0.13992	0.023804	0.014496	0.14877	0.13977	-0.030365	0.038147	0.12634	0.085907	0.12497	-0.33951	-0.015411	-0.3122	-0.12528	0.02182	0.003815	-0.47989	-0.011444	0.00351	0.091553	0	-0.014954
32.4	-0.00351	-0.040131	0.052032	0.021667	-0.003052	0.065765	0.15121	-0.023193	-0.24841	0.032654	0.092163	0.021667	-0.041962	0.10422	0.20599	-0.042572	0.000305	0.040894	0.098877	0.1683	-0.34821	-0.11276	-0.28595	-0.088043	0.016785	0.009308	-1.2636	-0.011139	0.1297	0.098114	0.00351	-0.013428
32.401	0.003967	-0.054016	-0.034943	0.019073	-0.012054	-0.030518	0.11734	-0.020599	-0.11658	0.018616	0.034485	0.021973	-0.001526	0.11673	0.10757	-0.023041	0.047607	0.022278	0.063019	0.13275	-0.16846	-0.17258	-0.30899	-0.080719	0.007172	0.016327	-0.42404	-0.011139	0.31021	0.069427	-0.003357	-0.014343
32.402	0.001526	-0.040741	-0.073242	0.012512	-0.053253	0.00412	0.12741	-0.001526	-0.038452	0.017242	0.039825	0.014648	0.041351	0.17593	0.039215	-0.045013	0.067902	-0.013733	0.097809	0.10895	0.14679	-0.061798	-0.34042	0.019684	0.03952	0.006866	-0.008698	-0.010834	0.22858	0.088196	0.002747	-0.018463
32.403	0.015869	-0.027008	-0.02533	0.00885	0.001526	0.017548	0.10834	0.020752	-0.10086	0.008087	0.016632	0.011139	0.0354	0.19028	0.00473	-0.052948	-0.009155	-0.016937	0.17197	0.079956	0.19287	-0.006409	-0.37598	0.098877	0.063171	0.001221	-0.027466	-0.010071	-0.062714	0.12207	-0.001221	-0.010986
32.404	0.035095	-0.027313	-0.001373	0.001373	0.034943	0.084686	0.11185	0.02243	-0.24735	0.009155	-0.17258	0.017242	0.067902	0.18814	-0.083008	-0.071106	-0.04303	-0.04715	0.1033	0.054626	0.21118	0.041351	-0.35675	0.035858	0.054016	-0.010529	-0.17258	-0.005646	-0.10483	0.15366	-0.00412	-0.01709
32.405	0.041809	-0.075226	-0.012512	-0.000763	-0.013733	0.084076	0.19089	0.013885	-0.38284	-0.020447	-0.14099	0.010681	0.086517	0.18204	-0.12085	-0.081329	-0.10223	-0.12802	0.13473	0.050659	0.20325	0.034332	-0.39581	0.014496	0.041046	-0.011902	-0.21576	-0.007019	-0.13306	0.097198	-0.003357	-0.021667
32.406	0.048981	-0.061035	-0.041199	0.009003	-0.00061	0.099487	0.17197	0.000458	-0.22156	-0.033722	-0.080109	0.013275	0.014954	0.17609	-0.098572	-0.084076	-0.095978	-0.21683	0.10803	0.052032	-0.021362	0.054474	-0.34409	0.041351	0.026245	-0.012817	-0.14099	-0.005188	-0.16647	-0.001831	-0.00061	-0.019836
32.407	0.036316	-0.024567	-0.067749	0.012665	0.013123	-0.03418	0.10727	-0.023956	-0.074921	-0.05249	-0.043793	0.013123	-0.002441	0.21271	-0.026703	-0.099945	-0.14282	-0.21835	0.09201	0.064545	-0.008392	-0.014801	-0.37201	0.078278	0.034943	-0.002289	0.19348	-0.004425	-0.13062	-0.021515	0.002136	-0.013885
32.408	0.020447	-0.001373	-0.077972	0.013885	-0.002747	-0.28122	0.066528	-0.033417	-0.048218	-0.057678	-0.02655	0.006104	0.037079	0.23941	0.000305	-0.091095	-0.11398	-0.29175	0.12222	0.040131	0.13641	-0.016479	-0.38544	0.023651	0.029907	0.001221	0.58716	-0.006561	-0.15762	-0.084839	0.00351	-0.029297
32.409	0.023956	0.076141	-0.089264	0.012207	0.032349	-0.11429	0.050507	-0.036469	0.007477	-0.051575	0.001373	0.004578	0.10101	0.22095	-0.000458	-0.094757	-0.086365	-0.29022	0.13657	-0.1091	0.16373	0.10574	-0.36819	0.020142	0.003967	0.005951	0.68787	-0.004425	-0.095367	-0.094147	-0.001068	-0.031128
32.41	0.010529	0.069122	-0.032654	-0.007172	0.025482	0.044403	0.062256	-0.016174	0.059662	-0.061035	0.006256	0.003204	0.20783	0.22507	0.012054	-0.088043	-0.031586	-0.33264	0.14954	-0.17197	0.10529	-0.039673	-0.31448	0.004272	-0.03418	-0.000153	0.48309	-0.007477	0.040131	-0.050201	-0.000916	-0.025177
32.411	-0.005646	0.081024	0.05188	-0.000153	-0.002594	-0.029907	0.082397	0.013885	0.004883	-0.081024	-0.009003	0.005035	0.077362	0.23148	0.033569	-0.098724	0.033417	-0.39276	0.10315	-0.14786	0.084381	-0.10834	-0.30518	0.040283	-0.041199	0.00061	0.39688	-0.004425	0.112	-0.009918	-0.001526	-0.021515
32.412	-0.009613	0.072632	0.055237	0.022125	0.036011	-0.022278	0.017242	0.009308	-0.020752	-0.079956	-0.004272	0.002747	-0.034637	0.23468	0.026398	-0.10803	0.073242	-0.42954	0.103	-0.061493	0.071106	-0.12924	-0.33646	0.022278	-0.039978	0.004272	0.37354	-0.003357	0.15198	0.06958	-0.001984	-0.022888
